{
  "accessors": [
    {
      "bufferView": 2,
      "componentType": 5126,
      "count": 65532,
      "max": [
        2.149388313293457,
        3.3933207988739014,
        0.9892740249633789
      ],
      "min": [
        0.44368302822113037,
        -3.5241737365722656,
        -6.114798545837402
      ],
      "type": "VEC3"
    },
    {
      "bufferView": 2,
      "byteOffset": 786384,
      "componentType": 5126,
      "count": 65532,
      "max": [
        1.0,
        1.0,
        1.0
      ],
      "min": [
        -1.0,
        -1.0,
        -1.0
      ],
      "type": "VEC3"
    },
    {
      "bufferView": 3,
      "componentType": 5126,
      "count": 65532,
      "max": [
        1.0,
        1.0,
        1.0,
        1.0
      ],
      "min": [
        -1.0,
        -1.0,
        -1.0,
        -1.0
      ],
      "type": "VEC4"
    },
    {
      "bufferView": 1,
      "componentType": 5126,
      "count": 65532,
      "max": [
        0.993503987789154,
        0.9924042224884033
      ],
      "min": [
        0.0015064333565533161,
        0.002440312411636114
      ],
      "type": "VEC2"
    },
    {
      "bufferView": 1,
      "byteOffset": 524256,
      "componentType": 5126,
      "count": 65532,
      "max": [
        0.993503987789154,
        0.9924042224884033
      ],
      "min": [
        0.0015064333565533161,
        0.002440312411636114
      ],
      "type": "VEC2"
    },
    {
      "bufferView": 0,
      "componentType": 5125,
      "count": 269409,
      "type": "SCALAR"
    },
    {
      "bufferView": 2,
      "byteOffset": 1572768,
      "componentType": 5126,
      "count": 2011,
      "max": [
        2.1295435428619385,
        2.151548147201538,
        -1.5757176876068115
      ],
      "min": [
        1.7831847667694092,
        -2.9776065349578857,
        -6.1138081550598145
      ],
      "type": "VEC3"
    },
    {
      "bufferView": 2,
      "byteOffset": 1596900,
      "componentType": 5126,
      "count": 2011,
      "max": [
        0.9999999403953552,
        0.9995887875556946,
        0.9995890855789185
      ],
      "min": [
        -0.9999996423721313,
        -0.9995891451835632,
        -0.9995895624160767
      ],
      "type": "VEC3"
    },
    {
      "bufferView": 3,
      "byteOffset": 1048512,
      "componentType": 5126,
      "count": 2011,
      "max": [
        1.0,
        0.9985045194625854,
        0.999992847442627,
        1.0
      ],
      "min": [
        -1.0,
        -0.999999463558197,
        -0.9999887943267822,
        1.0
      ],
      "type": "VEC4"
    },
    {
      "bufferView": 1,
      "byteOffset": 1048512,
      "componentType": 5126,
      "count": 2011,
      "max": [
        0.7596243619918823,
        0.9924036264419556
      ],
      "min": [
        0.21426063776016235,
        0.37247252464294434
      ],
      "type": "VEC2"
    },
    {
      "bufferView": 1,
      "byteOffset": 1064600,
      "componentType": 5126,
      "count": 2011,
      "max": [
        0.7596243619918823,
        0.9924036264419556
      ],
      "min": [
        0.21426063776016235,
        0.37247252464294434
      ],
      "type": "VEC2"
    },
    {
      "bufferView": 0,
      "byteOffset": 1077636,
      "componentType": 5125,
      "count": 7311,
      "type": "SCALAR"
    },
    {
      "bufferView": 2,
      "byteOffset": 1621032,
      "componentType": 5126,
      "count": 21455,
      "max": [
        2.13924241065979,
        1.0408557653427124,
        0.6849518418312073
      ],
      "min": [
        0.6196668148040771,
        -3.5663180351257324,
        -6.049943923950195
      ],
      "type": "VEC3"
    },
    {
      "bufferView": 2,
      "byteOffset": 1878492,
      "componentType": 5126,
      "count": 21455,
      "max": [
        1.0,
        1.0,
        1.0
      ],
      "min": [
        -1.0,
        -1.0,
        -1.0
      ],
      "type": "VEC3"
    },
    {
      "bufferView": 3,
      "byteOffset": 1080688,
      "componentType": 5126,
      "count": 21455,
      "max": [
        1.0,
        0.9999791383743286,
        1.0,
        1.0
      ],
      "min": [
        -0.9997730851173401,
        -1.0,
        -1.0,
        1.0
      ],
      "type": "VEC4"
    },
    {
      "bufferView": 1,
      "byteOffset": 1080688,
      "componentType": 5126,
      "count": 21455,
      "max": [
        0.9941141605377197,
        0.993826150894165
      ],
      "min": [
        0.012104062363505363,
        0.00787272397428751
      ],
      "type": "VEC2"
    },
    {
      "bufferView": 1,
      "byteOffset": 1252328,
      "componentType": 5126,
      "count": 21455,
      "max": [
        0.9941141605377197,
        0.993826150894165
      ],
      "min": [
        0.012104062363505363,
        0.00787272397428751
      ],
      "type": "VEC2"
    },
    {
      "bufferView": 0,
      "byteOffset": 1106880,
      "componentType": 5125,
      "count": 102048,
      "type": "SCALAR"
    },
    {
      "bufferView": 2,
      "byteOffset": 2135952,
      "componentType": 5126,
      "count": 76,
      "max": [
        9.905702590942383,
        3.0651259422302246,
        7.840662479400635
      ],
      "min": [
        -10.012438774108887,
        0.004253268241882324,
        -16.92011260986328
      ],
      "type": "VEC3"
    },
    {
      "bufferView": 2,
      "byteOffset": 2136864,
      "componentType": 5126,
      "count": 76,
      "max": [
        0.9896042346954346,
        1.0,
        0.9896041750907898
      ],
      "min": [
        -0.9896041750907898,
        -1.0,
        -0.9896041750907898
      ],
      "type": "VEC3"
    },
    {
      "bufferView": 3,
      "byteOffset": 1423968,
      "componentType": 5126,
      "count": 76,
      "max": [
        0.3707895576953888,
        1.0,
        1.0,
        1.0
      ],
      "min": [
        -0.3707895576953888,
        -1.0,
        -0.9896042943000793,
        1.0
      ],
      "type": "VEC4"
    },
    {
      "bufferView": 1,
      "byteOffset": 1423968,
      "componentType": 5126,
      "count": 76,
      "max": [
        0.9905074834823608,
        0.9782275557518005
      ],
      "min": [
        0.0024462940637022257,
        0.0024432868231087923
      ],
      "type": "VEC2"
    },
    {
      "bufferView": 1,
      "byteOffset": 1424576,
      "componentType": 5126,
      "count": 76,
      "max": [
        0.9905074834823608,
        0.9782275557518005
      ],
      "min": [
        0.0024462940637022257,
        0.0024432868231087923
      ],
      "type": "VEC2"
    },
    {
      "bufferView": 0,
      "byteOffset": 1515072,
      "componentType": 5125,
      "count": 114,
      "type": "SCALAR"
    }
  ],
  "asset": {
    "extras": {
      "author": "Mehmet Akın Sarıca (https://sketchfab.com/m_akinsarica)",
      "license": "CC-BY-NC-SA-4.0 (http://creativecommons.org/licenses/by-nc-sa/4.0/)",
      "source": "https://sketchfab.com/3d-models/toy-train-6b8e46eb411c4c98a5d92f7b852fa6df",
      "title": "Toy_Train"
    },
    "generator": "Sketchfab-15.32.0",
    "version": "2.0"
  },
  "bufferViews": [
    {
      "buffer": 0,
      "byteLength": 1515528,
      "name": "floatBufferViews",
      "target": 34963
    },
    {
      "buffer": 0,
      "byteLength": 1425184,
      "byteOffset": 1515528,
      "byteStride": 8,
      "name": "floatBufferViews",
      "target": 34962
    },
    {
      "buffer": 0,
      "byteLength": 2137776,
      "byteOffset": 2940712,
      "byteStride": 12,
      "name": "floatBufferViews",
      "target": 34962
    },
    {
      "buffer": 0,
      "byteLength": 1425184,
      "byteOffset": 5078488,
      "byteStride": 16,
      "name": "floatBufferViews",
      "target": 34962
    }
  ],
  "buffers": [
    {
      "byteLength": 6503672,
      "uri": "scene.bin"
    }
  ],
  "extensionsUsed": [
    "KHR_materials_specular"
  ],
  "images": [
    {
      "uri": "textures/Material.003_baseColor.jpeg"
    },
    {
      "uri": "textures/Material.003_metallicRoughness.png"
    },
    {
      "uri": "textures/Material.003_normal.jpeg"
    },
    {
      "uri": "textures/Material.003_specularf0.png"
    },
    {
      "uri": "textures/Material_baseColor.jpeg"
    },
    {
      "uri": "textures/Material_metallicRoughness.png"
    },
    {
      "uri": "textures/Material_normal.jpeg"
    },
    {
      "uri": "textures/Material_specularf0.png"
    },
    {
      "uri": "textures/Material.002_baseColor.jpeg"
    },
    {
      "uri": "textures/Material.002_metallicRoughness.png"
    },
    {
      "uri": "textures/Material.002_normal.jpeg"
    },
    {
      "uri": "textures/Material.002_specularf0.png"
    }
  ],
  "materials": [
    {
      "doubleSided": true,
      "extensions": {
        "KHR_materials_specular": {
          "specularColorFactor": [
            1.0,
            1.0,
            1.0
          ],
          "specularFactor": 1.0,
          "specularTexture": {
            "index": 3
          }
        }
      },
      "name": "Material.003",
      "normalTexture": {
        "index": 2
      },
      "pbrMetallicRoughness": {
        "baseColorTexture": {
          "index": 0
        },
        "metallicRoughnessTexture": {
          "index": 1
        }
      }
    },
    {
      "doubleSided": true,
      "extensions": {
        "KHR_materials_specular": {
          "specularColorFactor": [
            1.0,
            1.0,
            1.0
          ],
          "specularFactor": 1.0,
          "specularTexture": {
            "index": 7
          }
        }
      },
      "name": "Material",
      "normalTexture": {
        "index": 6
      },
      "pbrMetallicRoughness": {
        "baseColorTexture": {
          "index": 4
        },
        "metallicRoughnessTexture": {
          "index": 5
        }
      }
    },
    {
      "doubleSided": true,
      "extensions": {
        "KHR_materials_specular": {
          "specularColorFactor": [
            1.0,
            1.0,
            1.0
          ],
          "specularFactor": 1.0,
          "specularTexture": {
            "index": 11
          }
        }
      },
      "name": "Material.002",
      "normalTexture": {
        "index": 10
      },
      "pbrMetallicRoughness": {
        "baseColorTexture": {
          "index": 8
        },
        "metallicRoughnessTexture": {
          "index": 9
        }
      }
    }
  ],
  "meshes": [
    {
      "name": "Object_0",
      "primitives": [
        {
          "attributes": {
            "NORMAL": 1,
            "POSITION": 0,
            "TANGENT": 2,
            "TEXCOORD_0": 3,
            "TEXCOORD_1": 4
          },
          "indices": 5,
          "material": 0,
          "mode": 4
        }
      ]
    },
    {
      "name": "Object_1",
      "primitives": [
        {
          "attributes": {
            "NORMAL": 7,
            "POSITION": 6,
            "TANGENT": 8,
            "TEXCOORD_0": 9,
            "TEXCOORD_1": 10
          },
          "indices": 11,
          "material": 0,
          "mode": 4
        }
      ]
    },
    {
      "name": "Object_2",
      "primitives": [
        {
          "attributes": {
            "NORMAL": 13,
            "POSITION": 12,
            "TANGENT": 14,
            "TEXCOORD_0": 15,
            "TEXCOORD_1": 16
          },
          "indices": 17,
          "material": 1,
          "mode": 4
        }
      ]
    },
    {
      "name": "Object_3",
      "primitives": [
        {
          "attributes": {
            "NORMAL": 19,
            "POSITION": 18,
            "TANGENT": 20,
            "TEXCOORD_0": 21,
            "TEXCOORD_1": 22
          },
          "indices": 23,
          "material": 2,
          "mode": 4
        }
      ]
    }
  ],
  "nodes": [
    {
      "children": [
        1
      ],
      "matrix": [
        1.0,
        0.0,
        0.0,
        0.0,
        0.0,
        2.220446049250313e-16,
        -1.0,
        0.0,
        0.0,
        1.0,
        2.220446049250313e-16,
        0.0,
        0.0,
        0.0,
        0.0,
        1.0
      ],
      "name": "Sketchfab_model"
    },
    {
      "children": [
        2
      ],
      "name": "root"
    },
    {
      "children": [
        3,
        6,
        8
      ],
      "matrix": [
        1.0,
        0.0,
        0.0,
        0.0,
        0.0,
        2.220446049250313e-16,
        1.0,
        0.0,
        0.0,
        -1.0,
        2.220446049250313e-16,
        0.0,
        0.0,
        0.0,
        0.0,
        1.0
      ],
      "name": "GLTF_SceneRootNode"
    },
    {
      "children": [
        4,
        5
      ],
      "matrix": [
        8.493354397565156e-08,
        -0.9999999999999963,
        -1.6558405618871674e-09,
        0.0,
        0.9780885189269236,
        8.272779561391275e-08,
        0.2081894549282698,
        0.0,
        -0.2081894549282689,
        -1.9301826872930583e-08,
        0.9780885189269272,
        0.0,
        1.5135859251022339,
        2.147646188735962,
        0.49718335270881653,
        1.0
      ],
      "name": "train-plastic_0"
    },
    {
      "mesh": 0,
      "name": "Object_4"
    },
    {
      "mesh": 1,
      "name": "Object_5"
    },
    {
      "children": [
        7
      ],
      "matrix": [
        8.493354397565156e-08,
        -0.9999999999999963,
        -1.6558405618871674e-09,
        0.0,
        0.9780885189269236,
        8.272779561391275e-08,
        0.2081894549282698,
        0.0,
        -0.2081894549282689,
        -1.9301826872930583e-08,
        0.9780885189269272,
        0.0,
        1.5135859251022339,
        2.147646188735962,
        0.49718335270881653,
        1.0
      ],
      "name": "train-wood_1"
    },
    {
      "mesh": 2,
      "name": "Object_7"
    },
    {
      "children": [
        9
      ],
      "name": "bg_2"
    },
    {
      "mesh": 3,
      "name": "Object_9"
    }
  ],
  "samplers": [
    {
      "magFilter": 9729,
      "minFilter": 9987,
      "wrapS": 10497,
      "wrapT": 10497
    }
  ],
  "scene": 0,
  "scenes": [
    {
      "name": "Sketchfab_Scene",
      "nodes": [
        0
      ]
    }
  ],
  "textures": [
    {
      "sampler": 0,
      "source": 0
    },
    {
      "sampler": 0,
      "source": 1
    },
    {
      "sampler": 0,
      "source": 2
    },
    {
      "sampler": 0,
      "source": 3
    },
    {
      "sampler": 0,
      "source": 4
    },
    {
      "sampler": 0,
      "source": 5
    },
    {
      "sampler": 0,
      "source": 6
    },
    {
      "sampler": 0,
      "source": 7
    },
    {
      "sampler": 0,
      "source": 8
    },
    {
      "sampler": 0,
      "source": 9
    },
    {
      "sampler": 0,
      "source": 10
    },
    {
      "sampler": 0,
      "source": 11
    }
  ]
}
